<svg xmlns="http://www.w3.org/2000/svg" height="1200" width="1600" version="1.1" xmlns:xlink="http://www.w3.org/1999/xlink" xmlns:svgjs="http://svgjs.com/svgjs"><rect fill="#f3ebe9" width="1600" height="1200"></rect><g><path d="M418.27 181.78C305.84 238.34 241.69 398.37 277.55 523.23 313.42 647.39 450 736.37 562.44 826.04 674.87 915.03 763.86 1006.08 882.5 1035.74 1000.45 1066.09 1149.45 1035.74 1234.98 946.07 1319.82 856.39 1341.9 707.4 1326.72 574.96 1310.86 441.83 1257.74 324.57 1172.21 268 1086.68 211.44 969.41 216.27 830.76 194.89 691.43 172.81 531.4 125.22 418.27 181.78Z" fill="#efdcd7" opacity="1" stroke-width="4" stroke="none"></path></g><g><path d="M467.23 310.29L1132.77 313.1C1155.25 313.1 1161.41 315.46 1161.41 337.94L1173.47 370.66V862.06C1173.47 884.54 1155.25 902.76 1132.77 902.76H467.23C444.75 902.76 426.53 884.54 426.53 862.06V370.66L437.5 337.94C437.5 315.46 444.75 310.29 467.23 310.29Z" fill="#ffffff" opacity="1" stroke-width="4" stroke="none"></path><path d="M467.23 297.24H1132.77C1155.25 297.24 1173.47 315.46 1173.47 337.94V370.66H426.53V337.94C426.53 315.46 444.75 297.24 467.23 297.24Z" fill="#d5d5d5" opacity="1" stroke-width="4" stroke="none"></path><path d="M483.91 347.55C490.92 347.55 496.6 341.86 496.6 334.86 496.6 327.85 490.92 322.17 483.91 322.17 476.91 322.17 471.22 327.85 471.22 334.86 471.22 341.86 476.91 347.55 483.91 347.55Z" fill="#ffffff" opacity="1" stroke-width="4" stroke="none"></path><path d="M525.16 347.55C532.16 347.55 537.85 341.86 537.85 334.86 537.85 327.85 532.16 322.17 525.16 322.17 518.15 322.17 512.47 327.85 512.47 334.86 512.47 341.86 518.15 347.55 525.16 347.55Z" fill="#ffffff" opacity="1" stroke-width="4" stroke="none"></path><path d="M566.4 347.55C573.41 347.55 579.09 341.86 579.09 334.86 579.09 327.85 573.41 322.17 566.4 322.17 559.39 322.17 553.71 327.85 553.71 334.86 553.71 341.86 559.39 347.55 566.4 347.55Z" fill="#ffffff" opacity="1" stroke-width="4" stroke="none"></path><path d="M706.27 334.58H893.82" stroke="#ffffff" stroke-width="4" stroke-linecap="round" stroke-linejoin="round" opacity="1" fill="none"></path></g><g><path d="M894.91 537.25C894.91 484.78 852.43 442.31 799.97 442.31 747.5 442.31 705.02 484.78 705.02 537.25 705.02 574.45 726.68 608.18 760.41 623.59V798.76L798.58 837.62 839.53 798.76V770.16L814.26 744.62 839.53 720.47V705.62L814.26 680.08 839.53 655.93V623.59C873.25 608.18 894.91 574.45 894.91 537.25ZM800.38 483.67C816.48 483.67 829.67 496.72 829.67 512.96 829.67 529.2 816.62 542.25 800.38 542.25 784.14 542.25 771.1 529.2 771.1 512.96 771.1 496.72 784.28 483.67 800.38 483.67Z" fill="#61ccff" opacity="1" stroke-width="4" stroke="none"></path></g><g><path d="M217.7 694.33L256.48 709.59 228.03 680.99 256.1 659.11 219.61 666.84 226.5 626.75 206.1 661.76 186.61 641.21 195.14 670.07 158.22 672.72 194.13 684.59 176.5 711.86 203.24 693.8 211.19 729.34 217.7 694.33Z" fill="#ffffff" opacity="1" stroke-width="4" stroke="none"></path></g><g><path d="M398.91 1040.01C380.2 1040.01 365.01 1055.2 365.01 1073.91 365.01 1092.63 380.2 1107.82 398.91 1107.82 417.63 1107.82 432.82 1092.63 432.82 1073.91 432.82 1055.2 417.63 1040.01 398.91 1040.01Z" fill="#ffffff" opacity="1" stroke-width="4" stroke="none"></path></g><g><path d="M368.83 765.95L493.56 724.38C505.76 720.26 519.1 726.93 523.07 739.14L577.97 904.3C582.09 916.5 575.42 929.84 563.21 933.82L438.5 975.39C426.3 979.51 412.96 972.84 408.99 960.63L354.07 795.47C349.96 783.26 356.63 770.07 368.83 765.95Z" fill="#ffc930" opacity="1" stroke-width="4" stroke="none"></path><path d="M393.95 785.25L485.19 754.89C493.7 752.05 502.92 756.59 505.76 765.24L548.6 893.94C551.44 902.46 546.9 911.68 538.25 914.52L447.02 944.88C438.5 947.72 429.28 943.18 426.44 934.53L383.59 805.83C380.75 797.31 385.43 788.09 393.95 785.25Z" fill="#231f20" opacity="1" stroke-width="4" stroke="none"></path></g><g><path d="M1135.17 440.36C1194.74 448.08 1249.29 406.05 1257.01 346.48 1264.73 286.91 1222.7 232.36 1163.13 224.64 1103.56 216.92 1049.01 258.95 1041.29 318.52 1033.57 378.09 1075.6 432.64 1135.17 440.36Z" fill="#ff4f32" opacity="1" stroke-width="4" stroke="none"></path><path d="M1154.75 273.47L1154.58 273.44C1143.06 272.24 1120.33 277.04 1116.85 303.92 1116.19 308.99 1119.75 313.62 1124.83 314.28 1129.9 314.94 1134.53 311.37 1135.19 306.3 1137.09 291.65 1148.89 291.53 1152.55 291.83 1164.25 293.41 1170.7 300.63 1169.38 310.84 1168.4 318.34 1164.94 320.65 1156.07 324.84 1148.14 328.56 1136.14 334.28 1134.56 350.49L1134.22 353.15C1133.56 358.22 1137.12 362.85 1142.2 363.51 1147.22 364.16 1151.89 360.66 1152.67 355.6L1153.09 352.37C1153.61 346.98 1156.17 345.32 1164.04 341.59L1164.17 341.55C1172.6 337.54 1185.36 331.39 1187.72 313.22 1190.38 292.69 1176.84 276.33 1154.75 273.47Z" fill="#efefef" opacity="1" stroke-width="4" stroke="none"></path><path d="M1141.49 373.5C1135.9 372.78 1130.75 376.74 1130.02 382.34 1129.3 387.93 1133.27 393.08 1138.86 393.81 1144.52 394.48 1149.66 390.57 1150.33 384.97 1151.05 379.37 1147.09 374.23 1141.49 373.5Z" fill="#efefef" opacity="1" stroke-width="4" stroke="none"></path></g><g><path d="M1401.4 649.19C1369.75 649.19 1355.3 623.25 1355.17 622.99 1355.23 622.92 1359.74 619.02 1368.14 614.18 1374.79 610.35 1386.08 604.91 1399.45 600.88 1401.6 600.21 1413.9 604.1 1413.9 604.1 1413.9 604.1 1420.55 595.91 1427.54 594.97 1438.02 593.55 1447.36 593.08 1453.95 593.08 1464.16 593.08 1470.27 594.02 1470.34 594.02 1470.27 594.16 1465.03 606.52 1454.95 619.42 1445.61 631.32 1430.16 646.03 1409.46 648.72 1406.77 649.06 1404.02 649.19 1401.4 649.19Z" fill="#ffffff" opacity="1" stroke-width="4" stroke="none"></path><path d="M1406.5 641.53C1406.24 641.53 1405.97 641.53 1405.7 641.47 1398.58 640.12 1395.82 622.25 1399.45 600.88 1401.33 600.34 1403.55 599.6 1405.5 599.13 1412.55 597.32 1419.88 595.97 1427.54 594.97 1427.27 598.06 1426.73 601.35 1426.26 603.77 1422.43 624.93 1413.76 641.53 1406.5 641.53Z" fill="#000000" opacity="1" stroke-width="4" stroke="none"></path><path d="M1300.74 630.92C1291.87 630.92 1283 628.56 1274.4 623.99 1255.98 614.12 1246.71 594.9 1242.21 580.52 1237.3 564.93 1236.77 551.49 1236.77 551.35 1236.97 551.42 1253.77 555.05 1276.21 567.28 1282.39 570.64 1284.34 582.74 1284.34 582.74 1284.34 582.74 1299.39 581.93 1301.01 583.21 1324.12 600.88 1334.07 618.95 1334.13 619.16 1334.13 619.36 1320.56 630.92 1300.74 630.92 1300.8 630.92 1300.8 630.92 1300.74 630.92Z" fill="#ffffff" opacity="1" stroke-width="4" stroke="none"></path><path d="M1281.39 618.62C1281.12 618.62 1280.78 618.62 1280.51 618.55 1273.19 617.21 1270.57 598.12 1274.6 576.02 1275.07 573.19 1275.4 570.3 1276.21 567.28 1282.93 570.91 1289.78 575.01 1295.97 579.38 1297.58 580.52 1299.53 582.06 1301.07 583.27 1297.04 603.7 1288.37 618.62 1281.39 618.62Z" fill="#000000" opacity="1" stroke-width="4" stroke="none"></path></g></svg>